<mxfile host="app.diagrams.net" agent="Mozilla/5.0 (Macintosh; Intel Mac OS X 10_15_7) AppleWebKit/605.1.15 (KHTML, like Gecko) Version/18.3.1 Safari/605.1.15" version="26.2.12">
  <diagram name="Page-1" id="WlOSVe-GVL781Ecgp3k5">
    <mxGraphModel dx="978" dy="671" grid="1" gridSize="10" guides="1" tooltips="1" connect="1" arrows="1" fold="1" page="1" pageScale="1" pageWidth="1000" pageHeight="1000" math="0" shadow="0">
      <root>
        <mxCell id="0" />
        <mxCell id="1" parent="0" />
        <mxCell id="gdtIgyo1Iho4UzJ1fwcM-1" value="&lt;b&gt;Vehicle Involvement&lt;/b&gt;" style="text;html=1;align=center;verticalAlign=middle;whiteSpace=wrap;rounded=0;fontSize=15;" parent="1" vertex="1">
          <mxGeometry x="25" y="20" width="110" height="30" as="geometry" />
        </mxCell>
        <mxCell id="gdtIgyo1Iho4UzJ1fwcM-2" style="rounded=0;orthogonalLoop=1;jettySize=auto;html=1;exitX=0.5;exitY=1;exitDx=0;exitDy=0;entryX=0.5;entryY=0;entryDx=0;entryDy=0;" parent="1" source="gdtIgyo1Iho4UzJ1fwcM-4" target="gdtIgyo1Iho4UzJ1fwcM-13" edge="1">
          <mxGeometry relative="1" as="geometry" />
        </mxCell>
        <mxCell id="gdtIgyo1Iho4UzJ1fwcM-3" style="rounded=0;orthogonalLoop=1;jettySize=auto;html=1;exitX=0.5;exitY=1;exitDx=0;exitDy=0;entryX=0.5;entryY=0;entryDx=0;entryDy=0;" parent="1" source="gdtIgyo1Iho4UzJ1fwcM-4" target="gdtIgyo1Iho4UzJ1fwcM-17" edge="1">
          <mxGeometry relative="1" as="geometry" />
        </mxCell>
        <mxCell id="JtYHdOUKKFrud_HMlpYA-1" style="rounded=0;orthogonalLoop=1;jettySize=auto;html=1;exitX=0.5;exitY=1;exitDx=0;exitDy=0;entryX=0.5;entryY=0;entryDx=0;entryDy=0;" edge="1" parent="1" source="gdtIgyo1Iho4UzJ1fwcM-4" target="gdtIgyo1Iho4UzJ1fwcM-25">
          <mxGeometry relative="1" as="geometry" />
        </mxCell>
        <mxCell id="JtYHdOUKKFrud_HMlpYA-3" style="rounded=0;orthogonalLoop=1;jettySize=auto;html=1;exitX=0.5;exitY=1;exitDx=0;exitDy=0;entryX=0.5;entryY=0;entryDx=0;entryDy=0;" edge="1" parent="1" source="gdtIgyo1Iho4UzJ1fwcM-4" target="JtYHdOUKKFrud_HMlpYA-2">
          <mxGeometry relative="1" as="geometry" />
        </mxCell>
        <mxCell id="gdtIgyo1Iho4UzJ1fwcM-4" value="All" style="rounded=1;whiteSpace=wrap;html=1;" parent="1" vertex="1">
          <mxGeometry x="520" y="80" width="120" height="60" as="geometry" />
        </mxCell>
        <mxCell id="gdtIgyo1Iho4UzJ1fwcM-5" value="All" style="text;html=1;align=center;verticalAlign=middle;whiteSpace=wrap;rounded=0;fontSize=15;" parent="1" vertex="1">
          <mxGeometry x="50" y="100" width="60" height="30" as="geometry" />
        </mxCell>
        <mxCell id="gdtIgyo1Iho4UzJ1fwcM-9" value="vehicle_involvement" style="text;html=1;align=center;verticalAlign=middle;whiteSpace=wrap;rounded=0;fontSize=15;" parent="1" vertex="1">
          <mxGeometry x="50" y="240" width="60" height="30" as="geometry" />
        </mxCell>
        <mxCell id="gdtIgyo1Iho4UzJ1fwcM-13" value="bus_involvement" style="rounded=1;whiteSpace=wrap;html=1;" parent="1" vertex="1">
          <mxGeometry x="280" y="220" width="120" height="60" as="geometry" />
        </mxCell>
        <mxCell id="gdtIgyo1Iho4UzJ1fwcM-17" value="articulated_truck" style="rounded=1;whiteSpace=wrap;html=1;" parent="1" vertex="1">
          <mxGeometry x="600" y="220" width="120" height="60" as="geometry" />
        </mxCell>
        <mxCell id="gdtIgyo1Iho4UzJ1fwcM-25" value="heavy_rigid_truck" style="rounded=1;whiteSpace=wrap;html=1;" parent="1" vertex="1">
          <mxGeometry x="440" y="220" width="120" height="60" as="geometry" />
        </mxCell>
        <mxCell id="JtYHdOUKKFrud_HMlpYA-2" value="none" style="rounded=1;whiteSpace=wrap;html=1;" vertex="1" parent="1">
          <mxGeometry x="760" y="220" width="120" height="60" as="geometry" />
        </mxCell>
      </root>
    </mxGraphModel>
  </diagram>
</mxfile>
